<svg width="44" height="46" viewBox="0 0 44 46" fill="none" xmlns="http://www.w3.org/2000/svg">
<path d="M42.8748 27.09C43.0065 26.1249 43.0762 25.1405 43.0762 24.1397C43.0762 18.1211 40.6017 12.6162 36.5742 8.66802C36.5486 8.64033 36.5222 8.61431 36.4941 8.58997C33.4292 5.61615 29.4781 3.53947 25.0381 2.81185C24.6798 1.20472 23.2476 0 21.5398 0C19.8302 0 18.3968 1.20472 18.0381 2.81143C15.6714 3.1979 13.4021 3.97545 11.2822 5.13023C10.7632 5.41306 10.571 6.06472 10.853 6.58504C11.0472 6.94298 11.4148 7.14607 11.7946 7.14607C11.967 7.14607 12.142 7.10411 12.3044 7.01557C14.1625 6.00346 16.1473 5.31277 18.2172 4.95609C18.7527 6.26949 20.0401 7.19769 21.5398 7.19769C23.0378 7.19769 24.3235 6.26991 24.8589 4.95651C27.8185 5.46803 30.533 6.64673 32.8556 8.32561H28.7672C26.5643 8.32561 24.7721 10.1237 24.7721 12.3338C24.7721 14.5422 26.5643 16.339 28.7672 16.339C29.7886 16.339 30.619 17.1749 30.619 18.2017C30.619 19.2289 29.7886 20.0644 28.7672 20.0644H28.1483C25.947 20.0644 24.1561 21.8612 24.1561 24.0701C24.1561 26.2802 25.947 28.0782 28.1483 28.0782H40.5367C38.7176 36.9321 30.8909 43.6095 21.5398 43.6095C17.2798 43.6095 13.3367 42.2231 10.1333 39.8779H14.233C16.436 39.8779 18.2281 38.0802 18.2281 35.8697C18.2281 33.6612 16.436 31.8644 14.233 31.8644C13.2116 31.8644 12.3812 31.029 12.3812 30.0018C12.3812 28.9762 13.2116 28.142 14.233 28.142H14.849C17.052 28.142 18.8441 26.344 18.8441 24.1338C18.8441 21.9233 17.052 20.1252 14.849 20.1252H2.54917C3.14922 17.2337 4.4022 14.5246 6.25858 12.145C6.62239 11.6784 6.54015 11.004 6.07437 10.639C5.60902 10.2739 4.93637 10.3566 4.57214 10.8236C1.58112 14.6585 0 19.2633 0 24.1397C0 30.1197 2.43294 35.5403 6.35719 39.4574C6.4193 39.538 6.49189 39.6093 6.57413 39.6697C10.4522 43.4345 15.7306 45.755 21.5398 45.755C32.3701 45.755 41.357 37.6896 42.855 27.2289C42.8647 27.1836 42.871 27.1375 42.8748 27.09V27.09ZM2.22816 22.2712H14.849C15.8716 22.2712 16.7037 23.1066 16.7037 24.1338C16.7037 25.1606 15.8716 25.9965 14.849 25.9965H14.233C12.0317 25.9965 10.2407 27.7929 10.2407 30.0018C10.2407 32.2119 12.0317 34.0099 14.233 34.0099C15.2556 34.0099 16.0877 34.8441 16.0877 35.8697C16.0877 36.8965 15.2556 37.7324 14.233 37.7324H7.66514C4.24904 34.221 2.14046 29.4231 2.14046 24.1397C2.14046 23.5111 2.17068 22.888 2.22816 22.2712V22.2712ZM21.5398 5.05177C20.7408 5.05177 20.0912 4.39926 20.0912 3.59737C20.0912 2.79675 20.7408 2.1455 21.5398 2.1455C22.3366 2.1455 22.9849 2.79675 22.9849 3.59737C22.9849 4.39926 22.3366 5.05177 21.5398 5.05177ZM28.1483 25.9323C27.127 25.9323 26.2965 25.0969 26.2965 24.0696C26.2965 23.0445 27.127 22.2099 28.1483 22.2099H28.7672C30.9686 22.2099 32.7595 20.4118 32.7595 18.2017C32.7595 15.9916 30.9686 14.1935 28.7672 14.1935C27.7446 14.1935 26.9125 13.3593 26.9125 12.3338C26.9125 11.3066 27.7446 10.4711 28.7672 10.4711H35.3477C38.8166 14.0064 40.9357 18.853 40.9357 24.1397C40.9357 24.744 40.9068 25.3419 40.8526 25.9323H28.1483Z" fill="white"/>
</svg>
